<?xml version="1.0" encoding="utf-8"?>
<!-- Generator: Adobe Illustrator 23.0.2, SVG Export Plug-In . SVG Version: 6.00 Build 0)  -->
<svg version="1.1" id="Capa_1" xmlns="http://www.w3.org/2000/svg" xmlns:xlink="http://www.w3.org/1999/xlink" x="0px" y="0px"
	 viewBox="0 0 952.1 952.1" style="enable-background:new 0 0 952.1 952.1;" xml:space="preserve">
<style type="text/css">
	.st0{fill:#FFFFFF;}
</style>
<circle class="st0" cx="0" cy="0.2" r="17.2"/>
<g>
	<g>
		<path d="M12.2-12c-1.6-1.6-3.4-2.8-5.5-3.7C4.6-16.6,2.3-17,0-17c-2.3,0-4.6,0.5-6.7,1.4c-2,0.9-3.9,2.1-5.5,3.7s-2.8,3.4-3.7,5.5
			c-0.9,2.1-1.4,4.4-1.4,6.7c0,2.3,0.5,4.6,1.4,6.7c0.9,2,2.1,3.9,3.7,5.5c1.6,1.6,3.4,2.8,5.5,3.7c2.1,0.9,4.4,1.4,6.7,1.4
			c2.3,0,4.6-0.5,6.7-1.4c2-0.9,3.9-2.1,5.5-3.7c1.6-1.6,2.8-3.4,3.7-5.5c0.9-2.1,1.4-4.4,1.4-6.7c0-2.3-0.5-4.6-1.4-6.7
			C15-8.6,13.7-10.4,12.2-12z M-9.5-13.1c0.2-0.1,0.3-0.2,0.5-0.4c0.8-0.6,1.8-1.1,2.7-1.5c2-0.8,4.2-1.3,6.4-1.3
			c1.4,0,2.9,0.2,4.3,0.6C3.8-15.4,3.1-15,2-14c-0.9-0.1-1.9-0.1-2.9,0c-1.3,0.1-2.5,0.4-3.7,0.8c-1.1,0.4-2,0.8-2.6,1.2
			c-0.9-0.3-2.1-0.7-2.7-0.9C-9.8-12.9-9.6-13.1-9.5-13.1z M6.1-8.8l-2.9,8l-7.1,1.4l-5.8-6c0.4-2.7,2.3-5.2,2.3-5.2
			c0,0,1.2-0.9,3.2-1.6c1.1-0.4,2.3-0.7,3.5-0.8c0.9-0.1,1.9-0.1,2.8,0L6.1-8.8z M-15.8-0.4C-16,0.8-16,2-15.9,3.2
			c-0.1-0.3-0.3-0.5-0.3-0.7c-0.1-0.8-0.2-1.5-0.2-2.3c0-2.4,0.5-4.7,1.5-6.8c-0.1,1.1-0.1,2.2,0,3.1C-15.3-2.5-15.6-1.5-15.8-0.4z
			 M-14.4,5.9c-0.2-0.6-0.4-1.5-0.5-2.6c-0.1-1.2-0.1-2.4,0.1-3.5c0.1-0.9,0.4-1.7,0.7-2.6c1.2-1,2.8-1.6,3.6-1.9l5.7,5.9l-0.6,6.5
			l-5.6,1.9C-12.3,8.6-13.5,7.2-14.4,5.9z M2.6,15.2c-1.2,0.8-4.4,1-5.7,1.1C-4.4,16-5.8,15.6-7.1,15c-1.1-0.5-2.2-1.2-3.2-2
			c0,0-0.2-1.8-0.1-2.4l5.7-1.9l6.5,2.8L2.6,15.2C2.6,15.2,2.6,15.2,2.6,15.2z M13.5,9.5c-1,1.4-2.1,2.7-3.5,3.7
			c-1.3,0.9-3.1,1.2-4.6,1.5c-0.1,0-1.6,0.3-1.6,0.2l-0.9-3.7l4.6-4.8l6.1-0.6c0.1,1,0.2,2.4,0.3,3.2C13.7,9.3,13.6,9.4,13.5,9.5z
			 M13.6,4.7c0,0,0,0.1-0.1,0.1L7.5,5.3L4.2-0.4l2.9-8l4.2,0.3c0.9,0.7,1.7,1.6,2.3,2.5c0.8,1.1,1.5,2.3,1.9,3.6
			C15.1,2,14,4,13.6,4.7z M15.7-4.4c-0.4-0.7-0.8-1.4-1.3-2c-0.7-1-1.6-1.9-2.6-2.7c-0.2-0.9-0.7-2.4-2-3.9c0,0,0.1,0,0.1,0.1
			c0.1,0.1,0.2,0.1,0.2,0.2c0.9,0.7,1.8,1.6,2.5,2.5C14.1-8.5,15.1-6.5,15.7-4.4C15.7-4.4,15.7-4.4,15.7-4.4z"/>
	</g>
</g>
</svg>
